Patient4_TMGait_0pt2_02_left_22_GRF.mot
version=1
nRows=51
nColumns=19
inDegrees=no
endheader
time	F1x	F1y	F1z	M1x	M1y	M1z	F2x	F2y	F2z	M2x	M2y	M2z	EC1x	EC1y	EC1z	EC2x	EC2y	EC2z
49.63	-3.0432	30.971	3.7918	-11.1619	-5.088	38.3495	-25.9955	737.6791	-46.561	261.8398	68.1279	923.0851	-0.0592	0.0182	-0.0073	-0.0462	0.0165	0.9585
49.6518	-2.8237	24.9966	3.2673	-8.9413	-4.5014	30.5749	-27.0063	746.4691	-46.8022	264.7673	68.9879	932.7074	-0.0592	0.0182	-0.0073	-0.0462	0.0165	0.9585
49.6736	-2.5569	18.5946	2.6309	-6.6055	-3.7546	22.4443	-27.8673	757.9165	-47.1901	268.6427	69.8729	945.168	-0.0592	0.0182	-0.0073	-0.0462	0.0165	0.9585
49.6954	-2.1719	12.4873	1.9366	-4.4104	-2.8811	14.8308	-28.548	771.8323	-47.6282	273.4226	70.6358	960.2333	-0.0592	0.0182	-0.0073	-0.0462	0.0165	0.9585
49.7171	-1.6974	7.2841	1.2742	-2.5627	-1.9965	8.4324	-29.07	787.8557	-47.9707	279.0057	71.1088	977.4795	-0.0592	0.0182	-0.0073	-0.0462	0.0165	0.9585
49.7389	-1.2358	3.3008	0.72096	-1.1636	-1.2291	3.5908	-29.417	805.3601	-48.0487	285.1993	71.0958	996.1565	-0.0592	0.0182	-0.0073	-0.0462	0.0165	0.9585
49.7607	-0.85042	0.54074	0.30236	-0.20699	-0.63458	0.27891	-29.5142	823.2881	-47.7118	291.6479	70.4076	1014.9868	-0.0592	0.0182	-0.0073	-0.0462	0.0165	0.9585
49.7825	-0.56427	-1.1729	0.013175	0.37467	-0.21681	-1.7462	-29.2452	839.9066	-46.9047	297.7275	68.9512	1031.8768	-0.0592	0.0182	-0.0073	-0.0462	0.0165	0.9585
49.8043	-0.37331	-2.0894	-0.16599	0.67216	0.046882	-2.8067	-28.4736	852.8607	-45.6825	302.5667	66.7537	1043.9994	-0.0592	0.0182	-0.0073	-0.0462	0.0165	0.9585
49.8261	-0.26265	-2.4667	-0.25733	0.7778	0.18806	-3.2288	-27.0751	859.7437	-44.166	305.2632	63.9225	1048.4942	-0.0592	0.0182	-0.0073	-0.0462	0.0165	0.9585
49.8479	-0.21225	-2.5394	-0.28403	0.77525	0.2406	-3.3039	-24.9632	858.8324	-42.4972	305.1615	60.6029	1043.3422	-0.0592	0.0182	-0.0073	-0.0462	0.0165	0.9585
49.8696	-0.20075	-2.5029	-0.26809	0.73459	0.23661	-3.2724	-22.0678	849.6867	-40.8086	302.08	56.9376	1028.053	-0.0592	0.0182	-0.0073	-0.0462	0.0165	0.9585
49.8914	-0.20799	-2.5098	-0.22995	0.71095	0.20454	-3.3175	-18.3356	833.324	-39.2099	296.3764	53.0536	1003.8617	-0.0592	0.0182	-0.0073	-0.0462	0.0165	0.9585
49.9132	-0.21441	-2.67	-0.18463	0.74396	0.16464	-3.5638	-13.7686	811.8941	-37.7886	288.8276	49.0717	973.3485	-0.0592	0.0182	-0.0073	-0.0462	0.0165	0.9585
49.935	-0.20072	-3.0463	-0.14117	0.85755	0.13031	-4.0759	-8.4551	788.1385	-36.6138	280.4311	45.1154	939.8087	-0.0592	0.0182	-0.0073	-0.0462	0.0165	0.9585
49.9568	-0.15142	-3.6496	-0.10669	1.0597	0.11114	-4.8554	-2.5758	764.8647	-35.7346	272.211	41.3139	906.6216	-0.0592	0.0182	-0.0073	-0.0462	0.0165	0.9585
49.9786	-0.056592	-4.4244	-0.085988	1.3381	0.1147	-5.8202	3.6274	744.5505	-35.1748	265.0738	37.7927	876.7762	-0.0592	0.0182	-0.0073	-0.0462	0.0165	0.9585
50.0004	0.086393	-5.2269	-0.080183	1.6532	0.14326	-6.7706	9.893	729.0616	-34.9253	259.7054	34.6505	852.5313	-0.0592	0.0182	-0.0073	-0.0462	0.0165	0.9585
50.0221	0.27052	-5.7959	-0.085039	1.9253	0.1901	-7.3509	15.98	719.4291	-34.9603	256.4888	31.9591	835.1569	-0.0592	0.0182	-0.0073	-0.0462	0.0165	0.9585
50.0439	0.47851	-5.728	-0.091808	2.0227	0.2391	-7.0196	21.6989	715.7065	-35.2612	255.4472	29.7744	824.7683	-0.0592	0.0182	-0.0073	-0.0462	0.0165	0.9585
50.0657	0.67665	-4.4609	-0.090576	1.7544	0.26643	-5.0355	26.9235	716.9895	-35.8267	256.248	28.1432	820.3624	-0.0592	0.0182	-0.0073	-0.0462	0.0165	0.9585
50.0875	0.80551	-1.2759	-0.073128	0.86925	0.24369	-0.46553	31.5754	721.5817	-36.6563	258.2644	27.0873	820.0297	-0.0592	0.0182	-0.0073	-0.0462	0.0165	0.9585
50.1093	0.77508	4.6477	-0.03328	-0.93159	0.13719	7.7383	35.59	727.2034	-37.7336	260.6533	26.601	821.2182	-0.0592	0.0182	-0.0073	-0.0462	0.0165	0.9585
50.1311	0.48008	14.149	0.031269	-3.9714	-0.087032	20.6147	38.8993	731.2812	-39.0053	262.464	26.6371	821.0859	-0.0592	0.0182	-0.0073	-0.0462	0.0165	0.9585
50.1529	-0.15128	28.0337	0.17287	-8.5773	-0.51743	39.1114	41.4218	731.3205	-40.362	262.7753	27.0948	816.9181	-0.0592	0.0182	-0.0073	-0.0462	0.0165	0.9585
50.1746	-1.146	46.9439	0.54197	-15.0282	-1.3552	63.9243	43.0531	725.2865	-41.6368	260.8359	27.8212	806.5465	-0.0592	0.0182	-0.0073	-0.0462	0.0165	0.9585
50.1964	-2.4423	71.2037	1.3798	-23.4909	-2.8865	95.3172	43.6613	711.8364	-42.6196	256.1497	28.6288	788.6041	-0.0592	0.0182	-0.0073	-0.0462	0.0165	0.9585
50.2182	-3.9385	100.7888	2.9397	-33.9968	-5.3971	133.112	43.1087	690.4174	-43.0893	248.5114	29.3277	762.6056	-0.0592	0.0182	-0.0073	-0.0462	0.0165	0.9585
50.24	-5.601	135.3427	5.3941	-46.4313	-9.0954	176.7686	41.2871	661.2485	-42.8625	238.0006	29.7615	728.9021	-0.0592	0.0182	-0.0073	-0.0462	0.0165	0.9585
50.2618	-7.496	173.894	8.7337	-60.4279	-13.9967	225.0761	38.1672	625.2388	-41.829	224.9508	29.8301	688.5601	-0.0592	0.0182	-0.0073	-0.0462	0.0165	0.9585
50.2836	-9.6463	214.6429	12.7084	-75.3037	-19.7936	275.8498	33.8712	584.0367	-39.9849	209.9671	29.4965	643.3776	-0.0592	0.0182	-0.0073	-0.0462	0.0165	0.9585
50.3054	-11.9586	255.9239	16.9018	-90.4166	-25.9311	327.1005	28.73	540.0666	-37.471	193.9358	28.8002	595.8862	-0.0592	0.0182	-0.0073	-0.0462	0.0165	0.9585
50.3271	-14.3028	296.8226	20.9515	-105.3851	-31.9143	377.7826	23.2435	496.0267	-34.5424	177.8447	27.835	548.8107	-0.0592	0.0182	-0.0073	-0.0462	0.0165	0.9585
50.3489	-16.536	336.6504	24.6698	-119.9042	-37.4608	427.1076	17.9735	454.0592	-31.4611	162.4833	26.6701	504.2146	-0.0592	0.0182	-0.0073	-0.0462	0.0165	0.9585
50.3707	-18.494	374.618	27.9961	-133.6388	-42.4357	474.1075	13.4049	415.2275	-28.4462	148.2521	25.3495	462.9883	-0.0592	0.0182	-0.0073	-0.0462	0.0165	0.9585
50.3925	-19.9964	409.9457	30.9136	-146.276	-46.7505	517.7725	9.8651	379.5464	-25.6581	135.1714	23.9074	424.9375	-0.0592	0.0182	-0.0073	-0.0462	0.0165	0.9585
50.4143	-20.9107	442.088	33.413	-157.613	-50.3413	557.3597	7.5092	346.4461	-23.1875	123.0487	22.3667	389.3107	-0.0592	0.0182	-0.0073	-0.0462	0.0165	0.9585
50.4361	-21.174	470.8796	35.4974	-167.6073	-53.1824	592.5944	6.3349	315.2257	-21.0489	111.6443	20.7277	355.3007	-0.0592	0.0182	-0.0073	-0.0462	0.0165	0.9585
50.4579	-20.7873	496.5511	37.196	-176.3738	-55.3002	623.6936	6.2089	285.3079	-19.1706	100.7623	18.9534	322.3118	-0.0592	0.0182	-0.0073	-0.0462	0.0165	0.9585
50.4796	-19.8136	519.6566	38.5624	-184.152	-56.7692	651.2742	6.9198	256.3394	-17.4276	90.2843	16.9837	290.0403	-0.0592	0.0182	-0.0073	-0.0462	0.0165	0.9585
50.5014	-18.353	540.9661	39.6644	-191.2625	-57.6895	676.2218	8.224	228.1434	-15.701	80.151	14.7773	258.3909	-0.0592	0.0182	-0.0073	-0.0462	0.0165	0.9585
50.5232	-16.5105	561.3416	40.585	-198.0568	-58.1814	699.5444	9.8711	200.6082	-13.9117	70.3213	12.3388	227.3305	-0.0592	0.0182	-0.0073	-0.0462	0.0165	0.9585
50.545	-14.3899	581.595	41.4282	-204.8585	-58.3928	722.2171	11.6152	173.609	-12.0244	60.7443	9.7155	196.7921	-0.0592	0.0182	-0.0073	-0.0462	0.0165	0.9585
50.5668	-12.0906	602.3587	42.2988	-211.9167	-58.477	745.0339	13.2155	147.0275	-10.0439	51.3683	6.9963	166.6921	-0.0592	0.0182	-0.0073	-0.0462	0.0165	0.9585
50.5886	-9.7031	623.9781	43.2708	-219.3674	-58.5554	768.4746	14.4288	120.882	-8.0114	42.1873	4.3145	137.079	-0.0592	0.0182	-0.0073	-0.0462	0.0165	0.9585
50.6104	-7.3235	646.4053	44.3858	-227.1956	-58.7176	792.5818	14.9945	95.5005	-6.0074	33.3047	1.8574	108.3299	-0.0592	0.0182	-0.0073	-0.0462	0.0165	0.9585
50.6321	-5.0714	669.164	45.6506	-235.2231	-59.0258	816.9198	14.6553	71.6297	-4.1511	24.9717	-0.14554	81.2902	-0.0592	0.0182	-0.0073	-0.0462	0.0165	0.9585
50.6539	-3.082	691.4836	47.0338	-243.1634	-59.5077	840.7199	13.2761	50.3013	-2.5633	17.5398	-1.5032	57.125	-0.0592	0.0182	-0.0073	-0.0462	0.0165	0.9585
50.6757	-1.4792	712.5617	48.4775	-250.7195	-60.1568	863.1748	10.9627	32.4481	-1.3232	11.3283	-2.1546	36.891	-0.0592	0.0182	-0.0073	-0.0462	0.0165	0.9585
50.6975	-0.35209	731.8208	49.915	-257.6728	-60.9363	883.7167	8.1051	18.5796	-0.44902	6.5097	-2.2041	21.1724	-0.0592	0.0182	-0.0073	-0.0462	0.0165	0.9585
50.7193	0.23719	749.1787	51.2844	-263.9774	-61.7956	902.303	5.2266	8.6869	0.097591	3.0774	-1.8672	9.96	-0.0592	0.0182	-0.0073	-0.0462	0.0165	0.9585
